<?xml version="1.0" standalone="no"?>
<!DOCTYPE svg PUBLIC "-//W3C//DTD SVG 20010904//EN"
 "http://www.w3.org/TR/2001/REC-SVG-20010904/DTD/svg10.dtd">
<svg version="1.0" xmlns="http://www.w3.org/2000/svg"
 width="300.000000pt" height="150.000000pt" viewBox="0 0 300.000000 150.000000"
 preserveAspectRatio="xMidYMid meet">
<metadata>
Created by potrace 1.10, written by Peter Selinger 2001-2011
</metadata>
<g transform="translate(0.000000,150.000000) scale(0.100000,-0.100000)"
fill="#000000" stroke="none">
<path d="M1463 1413 c26 -2 67 -2 90 0 23 2 2 3 -48 3 -49 0 -68 -1 -42 -3z"/>
<path d="M1322 1370 c-196 -52 -361 -197 -444 -390 -29 -68 -35 -95 -18 -85 6
3 10 14 10 24 0 10 19 56 41 101 59 117 172 230 289 288 259 129 557 81 765
-124 59 -58 126 -163 151 -237 9 -26 20 -47 24 -47 4 0 -1 23 -11 51 -80 209
-246 361 -461 420 -91 25 -247 25 -346 -1z"/>
<path d="M1496 1306 c-20 -47 -20 -52 -1 -36 12 10 18 10 30 0 19 -16 20 2 1
45 l-13 30 -17 -39z"/>
<path d="M1410 1297 c0 -20 5 -39 12 -43 8 -5 9 0 6 14 -7 25 9 30 18 7 4 -8
10 -15 15 -15 12 0 11 41 -1 60 -8 13 -10 12 -10 -4 0 -18 -1 -18 -20 -1 -20
18 -20 17 -20 -18z"/>
<path d="M1560 1300 c0 -16 -1 -33 -2 -37 -2 -5 7 -9 20 -11 12 -2 22 1 22 7
0 6 -7 11 -16 11 -13 0 -15 7 -10 30 3 17 1 30 -4 30 -6 0 -10 -13 -10 -30z"/>
<path d="M1340 1305 c-16 -19 2 -65 24 -65 22 0 35 31 25 58 -10 26 -31 29
-49 7z m40 -25 c0 -11 -7 -20 -15 -20 -8 0 -15 9 -15 20 0 11 7 20 15 20 8 0
15 -9 15 -20z"/>
<path d="M1664 1275 c-18 -43 -17 -55 1 -31 7 10 18 15 24 11 6 -3 11 -1 11 4
0 6 -4 11 -10 11 -5 0 -10 5 -10 11 0 6 9 8 20 4 11 -3 20 -2 20 3 0 5 -9 12
-21 15 -16 4 -24 -1 -35 -28z"/>
<path d="M1305 1271 c6 -37 11 -48 21 -39 3 3 -2 21 -11 39 l-15 34 5 -34z"/>
<path d="M1243 1283 c-18 -7 -16 -23 1 -23 8 0 18 -9 21 -20 3 -11 10 -20 15
-20 6 0 5 11 0 26 -6 14 -8 30 -4 35 5 10 -12 11 -33 2z"/>
<path d="M1722 1255 c-14 -30 -16 -54 -4 -39 15 17 32 64 23 64 -4 0 -13 -11
-19 -25z"/>
<path d="M1752 1245 c-17 -36 -15 -53 3 -29 14 18 14 18 15 -11 l0 -30 20 25
c11 14 20 31 20 39 0 11 -4 9 -15 -5 -14 -18 -14 -18 -15 9 0 34 -13 35 -28 2z"/>
<path d="M1197 1253 c-7 -13 4 -73 14 -73 5 0 9 7 9 16 0 11 6 14 20 9 11 -3
20 -3 19 2 0 13 -57 54 -62 46z"/>
<path d="M1153 1213 c4 -20 2 -22 -20 -17 -23 6 -24 5 -15 -13 13 -24 42 -49
42 -36 0 5 -5 14 -12 21 -15 15 -3 16 23 2 26 -15 25 4 -2 38 -21 25 -22 26
-16 5z"/>
<path d="M1815 1194 c-18 -15 -23 -23 -12 -20 12 4 20 -1 26 -16 9 -25 16 -17
26 30 8 39 0 40 -40 6z"/>
<path d="M1373 1185 c-73 -20 -122 -46 -190 -103 -51 -43 -109 -121 -129 -174
-13 -35 22 -18 40 19 23 49 107 153 124 153 9 0 9 -7 -3 -30 -9 -17 -19 -60
-22 -95 -5 -56 -4 -65 11 -65 13 0 16 10 16 53 0 28 5 69 10 89 10 36 54 98
69 98 8 0 94 -183 93 -196 -1 -4 -25 -15 -54 -25 -53 -17 -53 -17 -16 -18 20
-1 48 3 62 9 16 6 27 6 31 0 9 -15 25 -12 19 3 -3 9 24 28 80 55 46 23 87 42
90 42 3 0 22 -25 42 -55 20 -30 41 -55 45 -55 18 0 8 27 -31 77 l-39 53 32 16
c17 9 47 28 65 41 l34 25 36 -29 c33 -26 121 -138 122 -154 0 -3 -15 -11 -32
-17 -32 -10 -32 -10 20 -11 28 -1 52 1 52 3 0 10 -45 83 -79 129 -44 59 -144
128 -228 156 -74 25 -190 27 -270 6z m282 -38 c39 -13 69 -27 68 -32 -1 -4
-26 -24 -57 -44 l-56 -37 -51 48 c-27 27 -70 58 -95 68 -24 11 -44 22 -44 26
0 15 168 -6 235 -29z m-212 -13 c47 -24 137 -95 137 -108 -1 -8 -97 -59 -160
-84 -4 -2 -10 9 -14 23 -4 14 -22 58 -41 98 -19 41 -35 77 -35 80 0 14 82 7
113 -9z"/>
<path d="M1872 1157 c-28 -30 -29 -46 -1 -21 20 18 20 18 14 -9 -9 -34 4 -35
35 -2 24 25 16 36 -9 13 -11 -11 -12 -8 -7 15 8 33 -3 35 -32 4z"/>
<path d="M1064 1159 c-3 -6 6 -23 21 -38 21 -19 26 -21 21 -8 -5 15 -2 17 14
12 25 -8 25 -1 3 25 -19 22 -48 26 -59 9z"/>
<path d="M1030 1114 c-11 -13 -9 -19 14 -42 26 -26 27 -26 41 -8 18 24 11 34
-11 15 -15 -12 -16 -11 -9 11 7 23 7 24 -10 10 -16 -14 -17 -13 -11 8 9 26 4
28 -14 6z"/>
<path d="M1921 1106 c-16 -19 -11 -48 9 -54 13 -5 13 -3 1 12 -21 25 1 46 30
28 18 -12 20 -11 17 5 -4 23 -41 29 -57 9z"/>
<path d="M992 1068 c-15 -15 -16 -42 -2 -33 6 4 22 -1 35 -9 14 -9 25 -12 25
-6 0 6 -7 13 -16 17 -9 3 -19 14 -23 25 -5 14 -9 16 -19 6z"/>
<path d="M1960 1050 l-25 -20 25 -21 c14 -12 24 -29 22 -38 -2 -10 6 -6 23 12
35 40 32 48 -17 41 l-43 -6 30 26 c35 30 22 35 -15 6z"/>
<path d="M974 1005 c20 -15 20 -15 0 -15 -35 0 -35 -12 -3 -32 17 -11 34 -16
38 -13 3 4 -3 12 -14 18 -19 11 -18 12 10 17 l30 6 -32 17 c-39 21 -55 22 -29
2z"/>
<path d="M2017 964 c-28 -15 -34 -43 -10 -51 7 -3 9 3 6 16 -4 14 1 20 18 23
12 2 24 9 27 16 5 16 -6 15 -41 -4z"/>
<path d="M930 945 c0 -5 55 -35 65 -35 18 0 0 20 -26 29 -36 12 -39 13 -39 6z"/>
<path d="M990 730 l0 -120 35 0 35 0 0 120 0 120 -35 0 -35 0 0 -120z"/>
<path d="M1120 799 c0 -45 1 -46 30 -45 21 1 30 6 30 19 0 14 10 17 60 17 59
0 60 1 60 28 l0 27 -90 0 -90 0 0 -46z"/>
<path d="M1354 827 c-54 -47 -27 -102 63 -128 47 -13 59 -39 18 -39 -15 0 -40
7 -57 16 -32 17 -44 12 -50 -21 -4 -24 39 -47 102 -53 57 -5 100 24 100 69 0
34 -23 57 -82 80 -23 9 -44 21 -46 28 -5 14 37 15 74 1 31 -12 30 -13 39 21 6
23 3 28 -26 38 -53 18 -105 14 -135 -12z"/>
<path d="M1618 833 c-67 -42 -77 -139 -19 -196 25 -26 38 -31 80 -31 40 -1 55
4 73 22 l22 22 -23 23 c-16 15 -25 18 -28 10 -6 -16 -65 -17 -81 -1 -21 21
-15 76 12 93 23 16 54 11 68 -9 5 -7 17 -1 34 16 l27 26 -34 21 c-41 25 -94
27 -131 4z"/>
<path d="M1832 729 l-50 -119 34 0 c27 0 36 5 44 24 8 21 16 24 54 24 38 0 45
-3 50 -23 4 -17 14 -24 41 -27 19 -2 35 -1 35 2 0 3 -22 57 -48 120 -46 109
-50 115 -79 117 -30 1 -32 -2 -81 -118z m97 10 c6 -18 11 -33 11 -35 0 -1 -11
-2 -25 -1 -27 2 -29 5 -19 42 8 34 20 31 33 -6z"/>
<path d="M803 725 c0 -33 2 -45 4 -27 2 18 2 45 0 60 -2 15 -4 0 -4 -33z"/>
<path d="M2192 739 c-1 -25 -4 -68 -7 -95 l-4 -49 10 49 c5 27 8 70 6 95 l-3
46 -2 -46z"/>
<path d="M1210 750 c-21 -7 -18 -8 18 -9 26 -1 41 3 37 9 -7 11 -19 11 -55 0z"/>
<path d="M884 735 c-4 -9 -2 -21 4 -27 15 -15 44 -1 40 19 -4 23 -36 29 -44 8z"/>
<path d="M2066 734 c-4 -10 -2 -22 3 -27 15 -15 46 -3 46 18 0 26 -40 33 -49
9z"/>
<path d="M1120 665 l0 -55 35 0 35 0 -7 45 -6 45 47 0 c25 0 46 5 46 10 0 6
-32 10 -75 10 l-75 0 0 -55z"/>
<path d="M1098 563 c-27 -2 -48 -7 -48 -12 0 -4 16 -34 35 -67 49 -81 121
-146 212 -190 68 -33 88 -38 174 -42 157 -7 271 37 376 147 49 52 106 148 96
164 -5 9 -33 -11 -33 -24 0 -19 -70 -116 -109 -152 -46 -42 -47 -42 -26 1 14
27 35 123 35 160 0 6 -7 12 -15 12 -11 0 -15 -11 -15 -43 0 -56 -24 -137 -51
-171 -21 -27 -49 -35 -49 -13 0 6 -18 52 -39 100 l-40 88 27 11 c15 6 41 14
57 18 30 8 29 8 -8 9 -21 1 -47 -4 -58 -10 -16 -8 -25 -7 -41 8 -21 18 -21 18
-14 -9 5 -23 3 -28 -11 -28 -10 0 -47 -16 -83 -35 -35 -19 -69 -35 -75 -35 -6
0 -26 24 -44 54 -31 52 -61 78 -61 54 0 -6 18 -37 39 -68 l40 -58 -55 -33
c-29 -18 -54 -37 -54 -41 0 -31 -96 52 -148 129 -29 41 -28 50 8 58 17 4 30
11 30 16 0 5 -1 8 -2 7 -2 -1 -24 -3 -50 -5z m526 -158 l43 -100 -38 -3 c-48
-4 -118 30 -178 85 l-44 40 79 40 c43 22 83 39 87 39 4 -1 27 -46 51 -101z
m-195 -34 c22 -22 62 -50 90 -63 28 -12 51 -27 51 -32 0 -16 -166 3 -227 25
-77 29 -82 35 -43 56 17 10 42 26 54 35 29 24 31 23 75 -21z"/>
<path d="M952 533 c-7 -18 -11 -22 -11 -10 -1 9 -6 17 -12 17 -18 0 -5 -35 14
-38 12 -3 20 4 24 18 4 16 8 18 14 9 4 -8 11 -10 15 -6 7 7 -13 37 -26 37 -5
0 -13 -12 -18 -27z"/>
<path d="M2012 545 c2 -10 -7 -29 -19 -42 -13 -12 -23 -28 -23 -34 0 -7 3 -10
6 -6 4 3 19 0 35 -9 16 -8 29 -10 29 -5 0 6 -12 17 -27 24 -26 14 -26 15 -6
25 11 6 31 9 44 6 23 -5 23 -5 6 9 -10 9 -25 24 -33 34 -14 17 -15 17 -12 -2z"/>
<path d="M856 528 c56 -180 197 -337 371 -414 316 -140 700 -9 862 296 35 65
62 140 51 140 -5 0 -14 -17 -20 -37 -17 -54 -76 -160 -116 -208 -39 -49 -125
-119 -186 -154 -129 -72 -319 -100 -460 -67 -193 46 -363 178 -446 346 -23 47
-42 93 -42 103 0 9 -5 17 -11 17 -6 0 -8 -9 -3 -22z"/>
<path d="M968 494 c-16 -8 -28 -18 -28 -23 0 -16 35 -48 48 -43 9 3 11 -4 7
-25 -5 -23 -4 -25 5 -10 6 9 18 17 27 17 14 0 13 -3 -2 -26 -20 -32 -16 -38
19 -24 45 17 53 11 21 -15 -16 -14 -25 -25 -18 -25 6 0 15 5 18 10 3 6 11 10
18 10 8 0 8 -3 -1 -12 -18 -18 -15 -48 6 -55 9 -4 23 -15 30 -25 7 -10 18 -18
25 -18 8 0 8 3 -1 12 -17 17 -15 31 2 25 10 -4 13 -1 9 9 -3 7 -1 14 3 14 18
0 29 -16 31 -42 1 -20 -2 -25 -13 -21 -8 3 -14 0 -14 -6 0 -16 29 -26 42 -13
7 7 6 17 -2 32 -11 20 -10 21 12 15 19 -5 17 -1 -12 24 -19 17 -40 31 -46 31
-7 0 -14 7 -18 15 -3 8 -14 15 -25 15 -12 0 -18 6 -17 18 1 12 -6 17 -26 17
-31 -1 -34 5 -16 23 9 9 9 15 3 20 -6 4 -19 26 -29 50 -21 47 -21 47 -58 26z
m36 -41 c-23 -17 -31 -16 -38 3 -9 22 3 32 14 14 8 -12 10 -12 10 4 0 16 2 17
16 5 14 -12 14 -14 -2 -26z m126 -138 c10 -12 10 -18 0 -30 -12 -14 -15 -14
-31 1 -14 13 -16 20 -8 31 15 17 24 17 39 -2z"/>
<path d="M1946 426 c-22 -27 -21 -34 13 -61 22 -17 24 -17 18 -2 -5 12 -1 17
13 17 11 0 20 4 20 9 0 12 -39 21 -46 10 -7 -12 -24 -11 -24 1 0 6 7 10 16 10
9 0 12 5 8 12 -5 8 -2 9 9 5 45 -18 51 -18 27 2 -31 25 -31 25 -54 -3z"/>
<path d="M1903 373 c-7 -3 -13 -14 -13 -24 0 -13 -4 -18 -12 -13 -8 5 -9 2 -5
-10 10 -25 -1 -40 -18 -26 -11 9 -22 6 -49 -13 -33 -22 -34 -25 -21 -43 18
-24 19 -34 1 -34 -8 0 -18 9 -21 20 -3 11 -11 20 -16 20 -14 0 -11 -12 10 -39
33 -42 67 -9 41 40 -15 27 11 26 28 -1 7 -11 17 -20 24 -20 6 0 4 7 -5 18 -10
10 -17 27 -17 37 0 16 4 15 30 -10 29 -27 44 -24 18 4 -11 11 -8 12 17 7 28
-7 29 -7 12 12 -22 25 -22 35 2 21 23 -15 54 -4 49 17 -4 20 -39 43 -55 37z
m34 -28 c3 -9 3 -19 -1 -22 -8 -9 -37 18 -30 28 8 14 24 11 31 -6z"/>
<path d="M1262 218 c-7 -7 -12 -20 -12 -30 0 -21 36 -43 45 -28 3 5 -1 10 -9
10 -9 0 -16 9 -16 20 0 15 7 20 25 20 24 0 25 -3 20 -34 -6 -28 -4 -34 14 -39
12 -3 21 -1 21 4 0 5 -4 9 -10 9 -17 0 -11 18 8 23 16 4 16 5 0 6 -17 1 -27
21 -10 21 22 -1 34 -20 28 -44 -4 -15 -2 -26 4 -26 5 0 10 10 10 23 1 20 2 19
17 -8 l17 -30 7 25 c10 37 10 50 -1 50 -5 0 -10 -8 -11 -17 0 -14 -3 -13 -11
5 -6 12 -23 25 -37 28 -14 3 -34 9 -43 15 -24 12 -42 11 -56 -3z"/>
<path d="M1704 214 c3 -9 7 -28 7 -42 1 -19 3 -21 6 -9 3 13 11 17 24 14 25
-7 24 5 -4 31 -27 26 -42 28 -33 6z"/>
<path d="M1611 201 c-17 -11 -7 -41 14 -41 9 0 13 -5 10 -10 -4 -6 -11 -8 -16
-5 -5 4 -9 1 -9 -4 0 -17 37 -13 44 4 3 9 -5 20 -22 29 -19 11 -22 15 -9 16 9
0 17 5 17 10 0 12 -10 13 -29 1z"/>
<path d="M1557 193 c-4 -3 -7 -21 -7 -40 0 -29 3 -33 25 -33 14 0 25 5 25 11
0 6 -7 9 -15 6 -8 -4 -17 -2 -20 3 -3 5 3 11 12 13 17 4 17 5 1 6 -22 1 -24
21 -3 21 8 0 15 5 15 10 0 11 -23 14 -33 3z"/>
<path d="M1449 148 c5 -38 6 -39 9 -13 2 17 8 36 14 43 8 9 5 12 -9 12 -16 0
-18 -6 -14 -42z"/>
<path d="M1491 148 c1 -24 3 -35 6 -25 5 18 23 24 23 7 0 -5 4 -10 8 -10 4 0
8 15 7 33 0 25 -5 33 -22 35 -21 3 -23 0 -22 -40z"/>
</g>
</svg>
